<svg width="656" height="183" viewBox="0 0 656 183" fill="none" xmlns="http://www.w3.org/2000/svg">
<path d="M63.4584 70.011C37.5642 63.8365 32.962 59.5029 32.962 50.397C32.962 41.7942 41.0561 36.0048 53.1078 36.0048C64.7835 36.0048 76.3517 40.401 88.4929 49.4514C88.8511 49.7254 89.3167 49.8347 89.7644 49.763C89.9896 49.7307 90.2058 49.6527 90.3998 49.5339C90.5938 49.415 90.7615 49.2578 90.8925 49.0718L103.535 31.2503C103.785 30.897 103.89 30.4618 103.831 30.0333C103.771 29.6048 103.55 29.2152 103.213 28.9438C88.7616 17.3524 72.5016 11.7169 53.4839 11.7169C25.5304 11.7169 5.99333 28.4944 5.99333 52.4993C5.99333 78.2412 22.8443 87.3561 51.9618 94.392C76.7278 100.099 80.9181 104.88 80.9181 113.426C80.9181 122.899 72.4658 128.79 58.8561 128.79C43.7422 128.79 31.404 123.687 17.6153 111.76C17.2715 111.47 16.8291 111.322 16.3797 111.349C15.9141 111.384 15.5022 111.599 15.2157 111.939L1.03301 128.808C0.442062 129.525 0.513688 130.563 1.19417 131.172C17.2392 145.498 36.9732 153.055 58.2831 153.055C88.4034 153.055 107.869 136.598 107.869 111.116C107.923 89.6143 95.0471 77.7058 63.5121 70.0343L63.4584 70.011ZM176.024 44.475C162.97 44.475 152.261 49.618 143.415 60.1565V48.2946C143.417 47.8461 143.241 47.4152 142.925 47.0966C142.609 46.7779 142.18 46.5976 141.732 46.5952H118.542C117.61 46.5952 116.858 47.3581 116.858 48.2946V180.095C116.858 181.026 117.61 181.796 118.542 181.796H141.732C142.663 181.796 143.415 181.026 143.415 180.095V138.496C152.261 148.399 162.97 153.252 176.024 153.252C200.289 153.252 224.858 134.574 224.858 98.8688C224.894 63.156 200.325 44.4732 176.042 44.4732L176.024 44.475ZM197.89 98.8688C197.89 117.043 186.697 129.739 170.652 129.739C154.804 129.739 142.842 116.47 142.842 98.8688C142.842 81.2658 154.804 68 170.652 68C186.429 67.9982 197.89 80.9775 197.89 98.867V98.8688ZM287.803 44.475C256.554 44.475 232.075 68.5354 232.075 99.2574C232.075 129.65 256.393 153.449 287.427 153.449C318.783 153.449 343.334 129.471 343.334 98.8688C343.334 68.3707 318.944 44.4786 287.803 44.4786V44.475ZM287.803 129.919C271.185 129.919 258.65 116.56 258.65 98.8599C258.65 81.0796 270.755 68.1773 287.427 68.1773C304.152 68.1773 316.759 81.5309 316.759 99.2485C316.759 117.025 304.582 129.919 287.803 129.919ZM410.057 46.5952H384.539V20.5112C384.54 20.2892 384.497 20.0692 384.413 19.8638C384.329 19.6583 384.205 19.4714 384.049 19.3138C383.892 19.1561 383.707 19.0308 383.502 18.945C383.297 18.8592 383.077 18.8145 382.855 18.8136H359.665C358.734 18.8136 357.964 19.5765 357.964 20.5112V46.5952H346.826C345.895 46.5952 345.142 47.3581 345.142 48.2946V68.2202C345.142 69.155 345.895 69.9196 346.826 69.9196H357.964V121.484C357.964 142.311 368.333 152.876 388.801 152.876C397.11 152.876 404.004 151.157 410.505 147.468C411.042 147.181 411.364 146.608 411.364 145.999V127.018C411.364 126.444 411.06 125.889 410.558 125.585C410.314 125.429 410.033 125.34 409.744 125.328C409.455 125.315 409.167 125.379 408.911 125.513C404.452 127.752 400.136 128.79 395.301 128.79C387.87 128.79 384.539 125.406 384.539 117.849V69.9286H410.057C410.988 69.9286 411.74 69.1657 411.74 68.2292V48.3054C411.748 48.083 411.71 47.8615 411.629 47.6542C411.549 47.4468 411.427 47.258 411.271 47.0991C411.116 46.9402 410.929 46.8146 410.724 46.7298C410.518 46.6451 410.297 46.6029 410.075 46.606L410.057 46.5952ZM498.949 46.6973V43.4936C498.949 34.069 502.567 29.8661 510.661 29.8661C515.496 29.8661 519.382 30.8259 523.733 32.2764C524.271 32.4448 524.826 32.3606 525.255 32.04C525.474 31.8827 525.651 31.6754 525.772 31.4355C525.894 31.1956 525.956 30.9301 525.954 30.6612V11.1242C525.958 10.7593 525.843 10.403 525.627 10.1092C525.41 9.81548 525.104 9.60033 524.754 9.49637C520.17 8.13003 514.296 6.72787 505.486 6.72787C484.086 6.72787 472.751 18.7867 472.751 41.5883V46.4949H461.612C460.681 46.4949 459.911 47.2578 459.911 48.1926V68.2202C459.911 69.155 460.681 69.9196 461.612 69.9196H472.751V149.438C472.751 150.387 473.521 151.139 474.452 151.139H497.624C498.573 151.139 499.326 150.387 499.326 149.438V69.925H520.976L554.14 149.438C550.38 157.783 546.673 159.448 541.623 159.448C537.54 159.448 533.224 158.23 528.837 155.813C528.421 155.603 527.941 155.558 527.494 155.687C527.046 155.849 526.67 156.171 526.491 156.601L518.63 173.845C518.254 174.669 518.576 175.618 519.364 176.048C527.566 180.489 534.961 182.387 544.112 182.387C561.232 182.387 570.705 174.401 579.032 152.948L619.252 49.0181C619.356 48.7612 619.395 48.4821 619.363 48.2064C619.332 47.9308 619.232 47.6674 619.073 47.4405C618.921 47.2133 618.716 47.0271 618.476 46.8984C618.235 46.7696 617.967 46.7024 617.694 46.7027H593.554C592.82 46.7027 592.176 47.1629 591.943 47.8416L567.213 118.458L540.137 47.795C540.015 47.4748 539.8 47.1989 539.518 47.0038C539.237 46.8087 538.903 46.7037 538.561 46.7027H498.949V46.6973ZM447.412 46.5952H424.222C423.291 46.5952 422.52 47.3581 422.52 48.2946V149.438C422.52 150.387 423.291 151.139 424.222 151.139H447.412C448.343 151.139 449.113 150.387 449.113 149.438V48.3018C449.113 48.0783 449.07 47.857 448.984 47.6505C448.899 47.444 448.774 47.2563 448.616 47.0984C448.458 46.9405 448.27 46.8154 448.063 46.7303C447.857 46.6451 447.635 46.6017 447.412 46.6024V46.5952ZM435.951 0.539062C426.765 0.539062 419.315 7.97423 419.315 17.159C419.315 19.3435 419.745 21.5067 420.581 23.525C421.418 25.5433 422.643 27.3771 424.188 28.9218C425.733 30.4664 427.567 31.6916 429.585 32.5275C431.603 33.3633 433.766 33.7934 435.951 33.7932C445.138 33.7932 452.569 26.3491 452.569 17.159C452.569 7.97602 445.12 0.539062 435.951 0.539062ZM639.057 79.1169C629.889 79.1169 622.744 71.748 622.744 62.7997C622.744 53.8513 629.978 46.3982 639.147 46.3982C648.315 46.3982 655.461 53.7653 655.461 62.7065C655.461 71.6549 648.226 79.1169 639.057 79.1169ZM639.147 48.0206C630.784 48.0206 624.463 54.6643 624.463 62.7997C624.463 70.9314 630.748 77.4855 639.057 77.4855C647.42 77.4855 653.741 70.8473 653.741 62.7065C653.741 54.5748 647.456 48.0206 639.147 48.0206ZM642.764 64.3845L647.384 70.8455H643.48L639.326 64.9181H635.762V70.8455H632.503V53.7188H640.132C644.125 53.7188 646.74 55.7549 646.74 59.1824C646.757 61.9902 645.128 63.7058 642.782 64.3845H642.764ZM640.006 56.6574H635.762V62.0744H640.006C642.119 62.0744 643.391 61.0376 643.391 59.3632C643.391 57.6011 642.119 56.6574 640.006 56.6574Z" fill="#1ED760"/>
</svg>
